<svg xmlns="http://www.w3.org/2000/svg" viewBox="0 0 120 120"><defs><linearGradient id="sarahSkin" x1="0" y1="0" x2="0" y2="1"><stop offset="0%" stop-color="#E8C8A8"/><stop offset="100%" stop-color="#D4B898"/></linearGradient><linearGradient id="sarahHair" x1="0" y1="0" x2="0" y2="1"><stop offset="0%" stop-color="#E8E0D8"/><stop offset="100%" stop-color="#C8C0B8"/></linearGradient></defs><circle cx="60" cy="60" r="56" fill="#1A1A2E" stroke="#553355" stroke-width="2"/><rect x="48" y="82" width="24" height="12" fill="url(#sarahSkin)"/><path d="M34 88 Q50 82 60 85 Q70 82 86 88 L88 110 L32 110 Z" fill="#6A4A3A"/><path d="M38 88 Q50 84 60 86 Q70 84 82 88" fill="none" stroke="#7A5A4A" stroke-width="1"/><ellipse cx="60" cy="56" rx="24" ry="28" fill="url(#sarahSkin)"/><path d="M34 40 Q38 22 60 18 Q82 22 86 40 Q84 32 76 28 Q60 22 44 28 Q36 32 34 40" fill="url(#sarahHair)"/><circle cx="60" cy="18" r="12" fill="url(#sarahHair)"/><circle cx="60" cy="18" r="8" fill="#E8E0D8" opacity="0.5"/><line x1="52" y1="18" x2="68" y2="18" stroke="#DAA520" stroke-width="1.5"/><circle cx="52" cy="18" r="2" fill="#FFD700"/><path d="M34 40 Q30 50 32 60" fill="none" stroke="#D8D0C8" stroke-width="3"/><path d="M86 40 Q90 50 88 60" fill="none" stroke="#D8D0C8" stroke-width="3"/><ellipse cx="34" cy="56" rx="4" ry="6" fill="#D4B898"/><ellipse cx="86" cy="56" rx="4" ry="6" fill="#D4B898"/><path d="M42 48 Q48 46 54 48" fill="none" stroke="#C0A080" stroke-width="0.5" opacity="0.5"/><path d="M66 48 Q72 46 78 48" fill="none" stroke="#C0A080" stroke-width="0.5" opacity="0.5"/><path d="M40 56 Q48 54 56 56" fill="none" stroke="#C0A080" stroke-width="0.4" opacity="0.4"/><path d="M64 56 Q72 54 80 56" fill="none" stroke="#C0A080" stroke-width="0.4" opacity="0.4"/><path d="M44 62 Q52 60 58 62" fill="none" stroke="#C0A080" stroke-width="0.3" opacity="0.3"/><path d="M62 62 Q68 60 76 62" fill="none" stroke="#C0A080" stroke-width="0.3" opacity="0.3"/><ellipse cx="48" cy="52" rx="4.5" ry="3" fill="#FFF"/><circle cx="48" cy="52" r="2.5" fill="#5A6A3A"/><circle cx="48" cy="51.5" r="1.2" fill="#2A3A10"/><circle cx="47" cy="51" r="0.5" fill="#FFF" opacity="0.7"/><ellipse cx="72" cy="52" rx="4.5" ry="3" fill="#FFF"/><circle cx="72" cy="52" r="2.5" fill="#5A6A3A"/><circle cx="72" cy="51.5" r="1.2" fill="#2A3A10"/><circle cx="71" cy="51" r="0.5" fill="#FFF" opacity="0.7"/><path d="M42 46 Q48 44 54 47" fill="none" stroke="#C8C0B8" stroke-width="1.5" stroke-linecap="round"/><path d="M66 47 Q72 44 78 46" fill="none" stroke="#C8C0B8" stroke-width="1.5" stroke-linecap="round"/><path d="M56 52 Q58 60 60 62 Q62 60 64 52" fill="none" stroke="#B09070" stroke-width="1.2" stroke-linecap="round"/><path d="M48 68 Q54 72 60 71 Q66 72 72 68" fill="none" stroke="#9A7060" stroke-width="1.5" stroke-linecap="round"/><circle cx="38" cy="48" r="1" fill="#C0A080" opacity="0.3"/><circle cx="82" cy="50" r="0.8" fill="#C0A080" opacity="0.25"/><circle cx="48" cy="52" r="8" fill="none" stroke="#DAA520" stroke-width="1"/><circle cx="72" cy="52" r="8" fill="none" stroke="#DAA520" stroke-width="1"/><path d="M56 52 L64 52" stroke="#DAA520" stroke-width="0.8"/><path d="M40 52 L34 50" stroke="#DAA520" stroke-width="0.8"/><path d="M80 52 L86 50" stroke="#DAA520" stroke-width="0.8"/></svg>